<svg width="1320" height="85" viewBox="0 0 1320 85" fill="none" xmlns="http://www.w3.org/2000/svg">
<path d="M51.3331 84.9997C15.3999 84.9997 0 70.0664 0 42.8832C0 15.8166 15.3999 1 51.3331 1C87.1496 1 102.666 15.9333 102.666 42.8832C102.666 69.9497 87.1496 84.9997 51.3331 84.9997ZM51.3331 67.3831C73.1497 67.3831 81.6663 59.5664 81.6663 42.8832C81.6663 26.3166 73.2663 18.6166 51.3331 18.6166C29.3999 18.6166 20.9999 26.1999 20.9999 42.8832C20.9999 59.6831 29.5165 67.3831 51.3331 67.3831Z" fill="white"/>
<path d="M384.626 2.16699H405.625V83.8333H377.042L321.393 22.5836V83.8333H300.393V2.16699H328.859L384.626 63.5334V2.16699Z" fill="white"/>
<path d="M295.063 18.8503H229.73V35.4169H295.063V50.5835H229.73V67.1501H295.063V83.8333H208.73V2.16699H295.063V18.8503Z" fill="white"/>
<path d="M172.239 2.16699C190.789 2.16699 203.505 13.9503 203.505 32.1502C203.505 50.3501 190.789 62.0167 172.239 62.0167H129.072V83.8333H108.072V2.16699H172.239ZM166.405 44.4002C172.705 44.4002 182.505 44.4002 182.505 32.1502C182.505 19.7836 172.705 19.7836 166.405 19.7836H129.072V44.4002H166.405Z" fill="white"/>
<path d="M1017.25 32.1502C1017.25 45.4501 1010.48 55.2501 999.518 59.5668L1014.57 83.8333H989.835L976.651 62.0167H942.818V83.8333H921.818V2.16699H985.985C1004.53 2.16699 1017.25 13.9503 1017.25 32.1502ZM942.818 19.7836V44.4002H980.151C986.451 44.4002 996.251 44.4002 996.251 32.1502C996.251 19.7836 986.451 19.7836 980.151 19.7836H942.818Z" fill="white"/>
<path d="M1319.14 18.7514H1253.3V35.3857H1319.14V50.6143H1253.3V67.2486H1319.14V84H1232.14V2H1319.14V18.7514Z" fill="white"/>
<path d="M1173.49 53.3611V39.5486H1226.14V83.8194H1210.37L1209.42 70.8333C1201.59 79.3333 1189.14 85 1171.47 85C1140.88 85 1122.14 69.8889 1122.14 42.5C1122.14 15.1111 1140.88 0 1175.03 0C1208.23 0 1224.84 12.8681 1226.14 33.4097H1204.44C1203.25 27.1528 1197.56 17.8264 1175.03 17.8264C1147.28 17.8264 1143.49 33.0556 1143.49 42.9722C1143.49 53.0069 1147.4 68.5903 1175.03 68.5903C1195.66 68.5903 1203.97 59.6181 1204.44 53.3611H1173.49Z" fill="white"/>
<path d="M1107.66 84L1098.81 66.5457H1049.36L1040.51 84H1017.14L1059.74 2H1088.42L1131.14 84H1107.66ZM1057.26 50.8486H1090.9L1074.14 17.58L1057.26 50.8486Z" fill="white"/>
<path d="M916.491 18.8503H851.158V35.4169H916.491V50.5835H851.158V67.1501H916.491V83.8333H830.158V2.16699H916.491V18.8503Z" fill="white"/>
<path d="M803.906 2.16699H827.473L785.473 83.8333H756.773L714.773 2.16699H738.34L771.123 68.3167L803.906 2.16699Z" fill="white"/>
<path d="M444.496 42.8832C444.496 15.8166 459.896 1 495.829 1C528.379 1 544.712 13.3666 546.812 36.9332H525.462C523.479 23.7499 513.329 18.6166 495.829 18.6166C474.479 18.6166 465.496 26.1999 465.496 42.8832C465.496 59.6831 474.596 67.3831 495.829 67.3831C513.212 67.3831 523.479 62.1331 525.462 48.8331H546.812C544.712 72.5164 528.379 84.9997 495.829 84.9997C459.896 84.9997 444.496 70.0664 444.496 42.8832Z" fill="white"/>
<path d="M593.914 2.16602C581.438 9.53122 575.231 22.36 575.231 42.7412C575.232 63.4438 581.629 76.434 594.39 83.833H564.255C556.331 72.9523 552.607 59.0736 552.607 42.7412C552.607 26.6366 556.259 12.938 564.028 2.16602H593.914ZM706.985 2.16602C714.819 12.9574 718.519 26.6676 718.519 42.7412C718.518 59.0417 714.748 72.9327 706.759 83.833H676.63C689.461 76.4124 695.893 63.3946 695.894 42.7412C695.894 22.4085 689.653 9.55266 677.107 2.16602H706.985Z" fill="white"/>
</svg>
