<svg width="1018" height="84" viewBox="0 0 1018 84" fill="none" xmlns="http://www.w3.org/2000/svg">
<path d="M51.3331 83.9997C15.3999 83.9997 0 69.0664 0 41.8832C0 14.8166 15.3999 0 51.3331 0C87.1496 0 102.666 14.9333 102.666 41.8832C102.666 68.9497 87.1496 83.9997 51.3331 83.9997ZM51.3331 66.3831C73.1497 66.3831 81.6663 58.5664 81.6663 41.8832C81.6663 25.3166 73.2664 17.6166 51.3331 17.6166C29.3999 17.6166 20.9999 25.1999 20.9999 41.8832C20.9999 58.6831 29.5165 66.3831 51.3331 66.3831Z" fill="white"/>
<path d="M384.626 1.16699H405.625V82.8333H377.042L321.393 21.5836V82.8333H300.393V1.16699H328.859L384.626 62.5334V1.16699Z" fill="white"/>
<path d="M295.063 17.8503H229.73V34.4169H295.063V49.5835H229.73V66.1501H295.063V82.8333H208.73V1.16699H295.063V17.8503Z" fill="white"/>
<path d="M172.239 1.16699C190.789 1.16699 203.505 12.9503 203.505 31.1502C203.505 49.3501 190.789 61.0167 172.239 61.0167H129.072V82.8333H108.072V1.16699H172.239ZM166.405 43.4002C172.705 43.4002 182.505 43.4001 182.505 31.1502C182.505 18.7836 172.705 18.7836 166.405 18.7836H129.072V43.4002H166.405Z" fill="white"/>
<path d="M1017.25 31.1502C1017.25 44.4501 1010.48 54.2501 999.518 58.5668L1014.57 82.8333H989.835L976.651 61.0167H942.818V82.8333H921.818V1.16699H985.985C1004.53 1.16699 1017.25 12.9503 1017.25 31.1502ZM942.818 18.7836V43.4002H980.151C986.451 43.4002 996.251 43.4001 996.251 31.1502C996.251 18.7836 986.451 18.7836 980.151 18.7836H942.818Z" fill="white"/>
<path d="M916.491 17.8503H851.158V34.4169H916.491V49.5835H851.158V66.1501H916.491V82.8333H830.158V1.16699H916.491V17.8503Z" fill="white"/>
<path d="M803.906 1.16699H827.473L785.473 82.8333H756.773L714.773 1.16699H738.34L771.123 67.3167L803.906 1.16699Z" fill="white"/>
<path d="M444.496 41.8832C444.496 14.8166 459.896 0 495.829 0C528.379 0 544.712 12.3666 546.812 35.9332H525.462C523.479 22.7499 513.329 17.6166 495.829 17.6166C474.479 17.6166 465.496 25.1999 465.496 41.8832C465.496 58.6831 474.596 66.3831 495.829 66.3831C513.212 66.3831 523.479 61.1331 525.462 47.8331H546.812C544.712 71.5164 528.379 83.9997 495.829 83.9997C459.896 83.9997 444.496 69.0664 444.496 41.8832Z" fill="white"/>
<path d="M593.914 1.16602C581.438 8.53122 575.231 21.36 575.231 41.7412C575.232 62.4438 581.629 75.434 594.39 82.833H564.255C556.331 71.9523 552.607 58.0736 552.607 41.7412C552.607 25.6366 556.259 11.938 564.028 1.16602H593.914ZM706.985 1.16602C714.819 11.9574 718.519 25.6676 718.519 41.7412C718.518 58.0417 714.748 71.9327 706.759 82.833H676.63C689.461 75.4124 695.893 62.3946 695.894 41.7412C695.894 21.4085 689.653 8.55266 677.107 1.16602H706.985Z" fill="white"/>
</svg>
